# xmcd
#
# Track frame offsets:
#   150
#   15250
#   27758
#   44563
#   56915
#   71675
#   86580
#   100555
#   116055
#   125150
#
# Disc length: 1834 seconds
#
# Revision: 2
# Processed by: cddbd v1.5.1PL0 Copyright (c) Steve Scherf et al.
# Submitted via: Media_Universe 3.0
#
DISCID=8307280a
DTITLE=Joe Diffie - A Thousand Winding Roads
DYEAR=1990
DGENRE=Country
TTITLE0=Home
TTITLE1=If The Devil Danced (In Empty Pockets)
TTITLE2=If You Want Me To
TTITLE3=New Way (To Light Up An Old Flame)
TTITLE4=There Goes The Neighborhood
TTITLE5=Almost Home
TTITLE6=I Ain't Leavin' 'Til She's Gone
TTITLE7=Coolest Fool In Town
TTITLE8=Liquid Heartache
TTITLE9=Stranger In Your Eyes
EXTD=YEAR: 1990
EXTT0=
EXTT1=
EXTT2=
EXTT3=
EXTT4=
EXTT5=
EXTT6=
EXTT7=
EXTT8=
EXTT9=
PLAYORDER=
